# xmcd
#
# Track frame offsets:
#	150
#	6957
#	13877
#	35325
#	47895
#	53860
#	76582
#	90380
#	98980
#	119927
#	130980
#	137330
#	148350
#	162032
#	169687
#	192370
#	206355
#	213567
#	232687
#	249837
#	257142
#	268942
#	277597
#	325872
#
# Disc length: 4654 seconds
#
# Revision: 1
# Processed by: cddbd v1.5.1PL0 Copyright (c) Steve Scherf et al.
# Submitted via: CDex 1.50Beta5
#
DISCID=4d122c18
DTITLE=Various Artist - サムライスピリッツベスト
DYEAR=1900
DGENRE=
TTITLE0=1
TTITLE1=覇王丸
TTITLE2=男道
TTITLE3=VOICE COLLECTION1
TTITLE4=牙神 幻十郎
TTITLE5=鬼唄-改-
TTITLE6=VOICE COLLECTION2
TTITLE7=色
TTITLE8=漆黒
TTITLE9=VOICE COLLECTION3
TTITLE10=緋雨 閑丸
TTITLE11=風、薫る
TTITLE12=VOICE COLLECTION4
TTITLE13=リムルル
TTITLE14=笑顔でいるよ
TTITLE15=VOICE COLLECTION5
TTITLE16=ナコルル
TTITLE17=の宴
TTITLE18=VOICE COLLECTION6
TTITLE19=橘 右京
TTITLE20=川
TTITLE21=VOICE COLLECTION7
TTITLE22=寸劇・呉越同舟
TTITLE23=ナコルル&リムルル/心つないで
EXTD=
EXTT0=
EXTT1=
EXTT2=
EXTT3=
EXTT4=
EXTT5=
EXTT6=
EXTT7=
EXTT8=
EXTT9=
EXTT10=
EXTT11=
EXTT12=
EXTT13=
EXTT14=
EXTT15=
EXTT16=
EXTT17=
EXTT18=
EXTT19=
EXTT20=
EXTT21=
EXTT22=
EXTT23=
PLAYORDER=
